<mxfile host="app.diagrams.net" modified="2023-04-23T17:02:48.665Z" agent="Mozilla/5.0 (X11; Linux x86_64; rv:109.0) Gecko/20100101 Firefox/112.0" etag="zYSbkwbl6sz_fflYsau9" version="21.2.1" type="device">
  <diagram name="Page-1" id="PxNpAL1mxUjf2GdabhlM">
    <mxGraphModel dx="995" dy="658" grid="1" gridSize="10" guides="1" tooltips="1" connect="1" arrows="1" fold="1" page="0" pageScale="1" pageWidth="850" pageHeight="1100" math="0" shadow="0">
      <root>
        <mxCell id="0" />
        <mxCell id="1" parent="0" />
        <mxCell id="vmYi93Mpl0AaN3Bsr_ch-6" style="edgeStyle=orthogonalEdgeStyle;rounded=0;orthogonalLoop=1;jettySize=auto;html=1;entryX=0;entryY=0.5;entryDx=0;entryDy=0;" edge="1" parent="1" source="vmYi93Mpl0AaN3Bsr_ch-2" target="vmYi93Mpl0AaN3Bsr_ch-3">
          <mxGeometry relative="1" as="geometry" />
        </mxCell>
        <mxCell id="vmYi93Mpl0AaN3Bsr_ch-15" value="0,X,X / 1,0" style="edgeLabel;html=1;align=center;verticalAlign=middle;resizable=0;points=[];" vertex="1" connectable="0" parent="vmYi93Mpl0AaN3Bsr_ch-6">
          <mxGeometry x="-0.2708" y="-2" relative="1" as="geometry">
            <mxPoint x="22" y="-12" as="offset" />
          </mxGeometry>
        </mxCell>
        <mxCell id="vmYi93Mpl0AaN3Bsr_ch-2" value="&lt;div&gt;IDLE&lt;/div&gt;&lt;div&gt;&lt;br&gt;&lt;/div&gt;&lt;div&gt;0,0,0&lt;br&gt;&lt;/div&gt;" style="ellipse;whiteSpace=wrap;html=1;" vertex="1" parent="1">
          <mxGeometry x="-10" y="180" width="130" height="100" as="geometry" />
        </mxCell>
        <mxCell id="vmYi93Mpl0AaN3Bsr_ch-7" style="edgeStyle=orthogonalEdgeStyle;rounded=0;orthogonalLoop=1;jettySize=auto;html=1;exitX=0.5;exitY=1;exitDx=0;exitDy=0;entryX=0.5;entryY=0;entryDx=0;entryDy=0;" edge="1" parent="1" source="vmYi93Mpl0AaN3Bsr_ch-3" target="vmYi93Mpl0AaN3Bsr_ch-5">
          <mxGeometry relative="1" as="geometry" />
        </mxCell>
        <mxCell id="vmYi93Mpl0AaN3Bsr_ch-18" value="X,1,X / 0,1" style="edgeLabel;html=1;align=center;verticalAlign=middle;resizable=0;points=[];" vertex="1" connectable="0" parent="vmYi93Mpl0AaN3Bsr_ch-7">
          <mxGeometry x="-0.2511" y="-1" relative="1" as="geometry">
            <mxPoint as="offset" />
          </mxGeometry>
        </mxCell>
        <mxCell id="vmYi93Mpl0AaN3Bsr_ch-3" value="&lt;div&gt;START&lt;/div&gt;&lt;div&gt;&lt;br&gt;&lt;/div&gt;&lt;div&gt;0,0,0&lt;br&gt;&lt;/div&gt;" style="ellipse;whiteSpace=wrap;html=1;" vertex="1" parent="1">
          <mxGeometry x="280" y="180" width="130" height="100" as="geometry" />
        </mxCell>
        <mxCell id="vmYi93Mpl0AaN3Bsr_ch-9" style="edgeStyle=orthogonalEdgeStyle;rounded=0;orthogonalLoop=1;jettySize=auto;html=1;exitX=0.5;exitY=0;exitDx=0;exitDy=0;entryX=0.5;entryY=1;entryDx=0;entryDy=0;" edge="1" parent="1" source="vmYi93Mpl0AaN3Bsr_ch-4" target="vmYi93Mpl0AaN3Bsr_ch-2">
          <mxGeometry relative="1" as="geometry" />
        </mxCell>
        <mxCell id="vmYi93Mpl0AaN3Bsr_ch-24" value="X,X,1 / 0,1" style="edgeLabel;html=1;align=center;verticalAlign=middle;resizable=0;points=[];" vertex="1" connectable="0" parent="vmYi93Mpl0AaN3Bsr_ch-9">
          <mxGeometry x="0.14" y="-2" relative="1" as="geometry">
            <mxPoint x="-2" y="6" as="offset" />
          </mxGeometry>
        </mxCell>
        <mxCell id="vmYi93Mpl0AaN3Bsr_ch-4" value="&lt;div&gt;STOP&lt;/div&gt;&lt;div&gt;&lt;br&gt;&lt;/div&gt;&lt;div&gt;0,1,1&lt;br&gt;&lt;/div&gt;" style="ellipse;whiteSpace=wrap;html=1;" vertex="1" parent="1">
          <mxGeometry x="-10" y="430" width="130" height="100" as="geometry" />
        </mxCell>
        <mxCell id="vmYi93Mpl0AaN3Bsr_ch-8" style="edgeStyle=orthogonalEdgeStyle;rounded=0;orthogonalLoop=1;jettySize=auto;html=1;exitX=0;exitY=0.5;exitDx=0;exitDy=0;entryX=1;entryY=0.5;entryDx=0;entryDy=0;" edge="1" parent="1" source="vmYi93Mpl0AaN3Bsr_ch-5" target="vmYi93Mpl0AaN3Bsr_ch-4">
          <mxGeometry relative="1" as="geometry" />
        </mxCell>
        <mxCell id="vmYi93Mpl0AaN3Bsr_ch-20" value="X,1,X / 0,1" style="edgeLabel;html=1;align=center;verticalAlign=middle;resizable=0;points=[];" vertex="1" connectable="0" parent="vmYi93Mpl0AaN3Bsr_ch-8">
          <mxGeometry x="0.1667" y="1" relative="1" as="geometry">
            <mxPoint x="13" y="-11" as="offset" />
          </mxGeometry>
        </mxCell>
        <mxCell id="vmYi93Mpl0AaN3Bsr_ch-5" value="&lt;div&gt;READ&lt;/div&gt;&lt;div&gt;&lt;br&gt;&lt;/div&gt;&lt;div&gt;1,1,0&lt;br&gt;&lt;/div&gt;" style="ellipse;whiteSpace=wrap;html=1;" vertex="1" parent="1">
          <mxGeometry x="280" y="430" width="130" height="100" as="geometry" />
        </mxCell>
        <mxCell id="vmYi93Mpl0AaN3Bsr_ch-10" style="edgeStyle=orthogonalEdgeStyle;rounded=0;orthogonalLoop=1;jettySize=auto;html=1;entryX=1;entryY=0.5;entryDx=0;entryDy=0;" edge="1" parent="1" source="vmYi93Mpl0AaN3Bsr_ch-3" target="vmYi93Mpl0AaN3Bsr_ch-3">
          <mxGeometry relative="1" as="geometry">
            <Array as="points">
              <mxPoint x="345" y="150" />
              <mxPoint x="460" y="150" />
              <mxPoint x="460" y="230" />
            </Array>
          </mxGeometry>
        </mxCell>
        <mxCell id="vmYi93Mpl0AaN3Bsr_ch-17" value="X,0,X / 1,0" style="edgeLabel;html=1;align=center;verticalAlign=middle;resizable=0;points=[];" vertex="1" connectable="0" parent="vmYi93Mpl0AaN3Bsr_ch-10">
          <mxGeometry x="-0.4909" y="-1" relative="1" as="geometry">
            <mxPoint x="25" y="-11" as="offset" />
          </mxGeometry>
        </mxCell>
        <mxCell id="vmYi93Mpl0AaN3Bsr_ch-13" style="edgeStyle=orthogonalEdgeStyle;rounded=0;orthogonalLoop=1;jettySize=auto;html=1;exitX=0;exitY=0.5;exitDx=0;exitDy=0;entryX=0.5;entryY=0;entryDx=0;entryDy=0;" edge="1" parent="1" source="vmYi93Mpl0AaN3Bsr_ch-2" target="vmYi93Mpl0AaN3Bsr_ch-2">
          <mxGeometry relative="1" as="geometry">
            <Array as="points">
              <mxPoint x="-50" y="230" />
              <mxPoint x="-50" y="150" />
              <mxPoint x="55" y="150" />
            </Array>
          </mxGeometry>
        </mxCell>
        <mxCell id="vmYi93Mpl0AaN3Bsr_ch-16" value="1,X,X / 0,1" style="edgeLabel;html=1;align=center;verticalAlign=middle;resizable=0;points=[];" vertex="1" connectable="0" parent="vmYi93Mpl0AaN3Bsr_ch-13">
          <mxGeometry x="0.1438" y="1" relative="1" as="geometry">
            <mxPoint x="14" y="-9" as="offset" />
          </mxGeometry>
        </mxCell>
        <mxCell id="vmYi93Mpl0AaN3Bsr_ch-14" style="edgeStyle=orthogonalEdgeStyle;rounded=0;orthogonalLoop=1;jettySize=auto;html=1;exitX=0.5;exitY=1;exitDx=0;exitDy=0;entryX=0;entryY=0.5;entryDx=0;entryDy=0;" edge="1" parent="1" source="vmYi93Mpl0AaN3Bsr_ch-4" target="vmYi93Mpl0AaN3Bsr_ch-4">
          <mxGeometry relative="1" as="geometry">
            <Array as="points">
              <mxPoint x="55" y="570" />
              <mxPoint x="-50" y="570" />
              <mxPoint x="-50" y="480" />
            </Array>
          </mxGeometry>
        </mxCell>
        <mxCell id="vmYi93Mpl0AaN3Bsr_ch-23" value="X,X,0 / 0,1" style="edgeLabel;html=1;align=center;verticalAlign=middle;resizable=0;points=[];" vertex="1" connectable="0" parent="vmYi93Mpl0AaN3Bsr_ch-14">
          <mxGeometry x="-0.1569" relative="1" as="geometry">
            <mxPoint x="23" y="10" as="offset" />
          </mxGeometry>
        </mxCell>
        <mxCell id="vmYi93Mpl0AaN3Bsr_ch-21" style="edgeStyle=orthogonalEdgeStyle;rounded=0;orthogonalLoop=1;jettySize=auto;html=1;exitX=1;exitY=0.5;exitDx=0;exitDy=0;entryX=0.5;entryY=1;entryDx=0;entryDy=0;" edge="1" parent="1" source="vmYi93Mpl0AaN3Bsr_ch-5" target="vmYi93Mpl0AaN3Bsr_ch-5">
          <mxGeometry relative="1" as="geometry">
            <Array as="points">
              <mxPoint x="460" y="480" />
              <mxPoint x="460" y="570" />
              <mxPoint x="345" y="570" />
            </Array>
          </mxGeometry>
        </mxCell>
        <mxCell id="vmYi93Mpl0AaN3Bsr_ch-22" value="X,0,X / 0,0" style="edgeLabel;html=1;align=center;verticalAlign=middle;resizable=0;points=[];" vertex="1" connectable="0" parent="vmYi93Mpl0AaN3Bsr_ch-21">
          <mxGeometry x="0.4183" y="1" relative="1" as="geometry">
            <mxPoint x="11" y="9" as="offset" />
          </mxGeometry>
        </mxCell>
        <mxCell id="vmYi93Mpl0AaN3Bsr_ch-25" value="" style="endArrow=classic;html=1;rounded=0;entryX=0;entryY=1;entryDx=0;entryDy=0;" edge="1" parent="1" target="vmYi93Mpl0AaN3Bsr_ch-2">
          <mxGeometry width="50" height="50" relative="1" as="geometry">
            <mxPoint x="-40" y="320" as="sourcePoint" />
            <mxPoint x="-30" y="310" as="targetPoint" />
          </mxGeometry>
        </mxCell>
      </root>
    </mxGraphModel>
  </diagram>
</mxfile>
